# xmcd
#
# Track frame offsets:
#	150
#	38191
#	64814
#	79272
#	111381
#	123826
#	147408
#	166151
#	182886
#	200926
#	217536
#	231116
#	243816
#	257426
#	273018
#
# Disc length: 3811 seconds
#
# Revision: 1
# Processed by: cddbd v1.5.2PL0 Copyright (c) Steve Scherf et al.
# Submitted via: EZCDAudioConverter 4.0.2.1
#
DISCID=cf0ee10f
DTITLE=Fast Eddie Clarke - Anthology cd1
DYEAR=2007
DGENRE=Hardrock
TTITLE0=Curtis Knight Zeus - Cloud
TTITLE1=Curtis Knight Zeus - The Confession
TTITLE2=Continuous Performance - Takin' It Easy
TTITLE3=Continuous Performance - In The Morning
TTITLE4=Motörhead - White Line Fever
TTITLE5=Motörhead - Overkill
TTITLE6=Motörhead - Capricorn
TTITLE7=Motörhead - Bomber
TTITLE8=Motörhead - Lawman
TTITLE9=Motörhead - Step Down
TTITLE10=Motörhead - Emergency
TTITLE11=Motörhead - Ace of Spades
TTITLE12=Motörhead - Fun on the Farm
TTITLE13=Motörhead - Speedfreak
TTITLE14=Motörhead - Iron Fist
EXTD=
EXTT0=
EXTT1=
EXTT2=
EXTT3=
EXTT4=
EXTT5=
EXTT6=
EXTT7=
EXTT8=
EXTT9=
EXTT10=
EXTT11=
EXTT12=
EXTT13=
EXTT14=
PLAYORDER=
